<?xml version="1.0" encoding="UTF-8" standalone="no"?>
<svg width="46px" height="46px" viewBox="0 0 46 46" version="1.1" xmlns="http://www.w3.org/2000/svg" xmlns:xlink="http://www.w3.org/1999/xlink" xmlns:sketch="http://www.bohemiancoding.com/sketch/ns">
    <!-- Generator: Sketch 3.1 (8751) - http://www.bohemiancoding.com/sketch -->
    <title>info</title>
    <desc>Created with Sketch.</desc>
    <defs></defs>
    <g id="Main" stroke="none" stroke-width="1" fill="none" fill-rule="evenodd" sketch:type="MSPage">
        <g id="Lemons-lg" sketch:type="MSArtboardGroup" transform="translate(-129.000000, -489.000000)" fill="#9B9B9B">
            <g id="info" sketch:type="MSLayerGroup" transform="translate(129.000000, 489.000000)">
                <path d="M23,46 C10.318,46 0,35.683 0,23 C0,10.317 10.318,0 23,0 C35.682,0 46,10.317 46,23 C46,35.683 35.682,46 23,46 L23,46 Z M23,2 C11.42,2 2,11.421 2,23 C2,34.579 11.42,44 23,44 C34.58,44 44,34.579 44,23 C44,11.421 34.58,2 23,2 L23,2 Z" id="Fill-1" sketch:type="MSShapeGroup"></path>
                <path d="M29,38 L17,38 C16.448,38 16,37.553 16,37 C16,36.447 16.448,36 17,36 L29,36 C29.552,36 30,36.447 30,37 C30,37.553 29.552,38 29,38" id="Fill-2" sketch:type="MSShapeGroup"></path>
                <path d="M23,37 C22.448,37 22,36.553 22,36 L22,20 L19,20 C18.448,20 18,19.553 18,19 C18,18.447 18.448,18 19,18 L23,18 C23.552,18 24,18.447 24,19 L24,36 C24,36.553 23.552,37 23,37" id="Fill-3" sketch:type="MSShapeGroup"></path>
                <path d="M22,12 C20.897,12 20,11.103 20,10 C20,8.897 20.897,8 22,8 C23.103,8 24,8.897 24,10 C24,11.103 23.103,12 22,12 L22,12 Z M22.001,10 L21.998,10.001 L22,11 L22.001,10 L22.001,10 Z" id="Fill-4" sketch:type="MSShapeGroup"></path>
            </g>
        </g>
    </g>
</svg>