<svg class="lemons" width="848px" height="636px" viewBox="0 0 848 636" version="1.1" xmlns="http://www.w3.org/2000/svg" xmlns:xlink="http://www.w3.org/1999/xlink">
  <g transform="translate(-416.000000, -218.000000)" fill="#FFFD64">
      <path d="M1197.68099,652.406771 C1223.54609,616.314323 1264,574.797656 1264,536 C1264,497.202344 1223.54609,455.685677 1197.68099,419.593229 C1141.93438,301.778646 1002.78177,218 840,218 C677.218229,218 538.065625,301.778646 482.31901,419.593229 C456.453906,455.685677 416,497.202344 416,536 C416,574.797656 456.453906,616.314323 482.31901,652.406771 C538.065625,770.221354 677.218229,854 840,854 C1002.78177,854 1141.93438,770.221354 1197.68099,652.406771 L1197.68099,652.406771 Z M945.746654,711.429381 C934.777767,722.202947 945.746654,764.622139 945.746654,780.548279 C945.746654,793.016408 933.88094,807 919.255757,807 C904.616776,807 892.764859,791.473391 892.764859,780.548279 C892.764859,759.634887 898.173417,746.960104 892.764859,741.890191 C885.162523,734.781291 858.423273,747.483628 839.769266,747.483628 C745.450632,747.483628 663.549606,666.957426 705.079608,631.040948 C751.604247,590.81229 931.43881,593.856993 974.445127,631.040948 C998.328327,651.692578 959.143874,698.244852 945.746654,711.429381 L945.746654,711.429381 Z"></path>
  </g>
</svg>